<svg id="Capa_1" enable-background="new 0 0 512.549 512.549" height="512" viewBox="0 0 512.549 512.549" width="512" xmlns="http://www.w3.org/2000/svg"><g><path d="m491.764 32.25c-13.878-6.704-30.149-3.793-43.524 7.784-12.871 11.14-24.598 28.514-34.217 45.84.545-19.8-.707-40.706-6.122-56.881-5.615-16.775-18.136-27.566-33.493-28.865-14.019-1.18-27.727 5.948-34.053 17.757-9.017 16.834-8.22 43.222 2.37 78.432 4.318 14.358 9.359 27.169 12.951 35.647-11.895 1.947-23.37 6.46-33.597 13.406-20.339 13.813-33.558 35.75-36.268 60.185l-9.577 86.375-19.364-49.597c-8.941-22.901-27.387-40.669-50.607-48.748-11.677-4.062-23.929-5.451-35.924-4.253 1.275-9.118 2.829-22.798 3.284-37.785 1.116-36.75-4.944-62.446-18.011-76.373-9.166-9.77-24.231-13.12-37.488-8.338-14.498 5.229-23.799 18.893-24.881 36.55-1.041 16.991 3.195 37.573 8.864 56.594-13.791-14.27-29.642-28.054-44.969-35.489-15.916-7.721-32.385-6.321-44.056 3.746-10.672 9.206-15.144 23.977-11.129 36.756 5.724 18.219 25.14 36.107 57.71 53.167 12.32 6.453 24.129 11.533 32.616 14.919-8.253 10.598-13.931 23.146-16.371 36.701-4.354 24.196 2.077 48.987 17.645 68.015l123.409 150.839c12.78 15.62 31.296 23.913 50.179 23.913 11.205 0 22.541-2.921 32.881-8.965h.001c13.059-7.634 22.553-19.094 27.732-32.209.441.009.883.02 1.323.02 25.308 0 48.389-14.667 59.035-38.26l80.164-177.639c10.112-22.409 9.908-48.02-.561-70.265-5.865-12.461-14.597-23.113-25.312-31.213 7.321-5.467 17.413-13.431 27.643-22.853 27.044-24.909 41.169-47.212 41.982-66.292.568-13.381-7.575-26.492-20.265-32.621zm-133.779-4.923c2.569-4.797 8.623-7.788 14.737-7.271 7.364.623 13.122 6.051 16.213 15.285 9.498 28.374 3.765 76.989.593 98.023-4.079-1.017-8.198-1.719-12.326-2.114-2.781-6.134-9.828-22.358-15.396-40.931-8.692-28.995-10.049-51.365-3.821-62.992zm-244.78 77.283c.596-9.719 4.752-16.453 11.705-18.96 5.765-2.079 12.393-.76 16.117 3.209 9.024 9.619 13.504 31.578 12.612 61.834-.571 19.384-3.18 36.878-4.278 43.521-3.896 1.455-7.705 3.205-11.392 5.251-19.737-44.51-25.76-78.617-24.764-94.855zm-92.174 54.39c-1.631-5.192.471-11.615 5.112-15.618 5.596-4.827 13.502-5.146 22.264-.896 22.693 11.008 50.915 42.023 70.475 68.107l-2.726 1.594c-2.869 1.677-5.613 3.516-8.233 5.493-23.437-8.5-78.92-33.304-86.892-58.68zm268.896 327.317c-19.217 11.233-43.394 6.881-57.488-10.345l-11.576-14.149 21.555-18.537c3.224-2.772.44-7.99-3.657-6.856l-31.536 8.723-30.746-37.58 23.997-14.027c6.968-4.073 3.249-14.773-4.743-13.646l-37.561 5.296-41.254-50.424 29.279-22.202c5.001-3.792 1.174-11.711-4.905-10.149l-40.19 10.332c-5.934-12.109-7.948-25.888-5.511-39.429 3.317-18.431 14.492-34.422 30.659-43.872l20.17-11.791c9.912-5.793 21.043-8.746 32.249-8.746 7.074 0 14.178 1.177 21.023 3.558 17.687 6.153 31.737 19.688 38.547 37.131l13.74 35.191-27.126 35.467c-4.904 6.411 2.595 14.902 9.563 10.828l29.016-16.961 17.079 43.743-25.921 26.061c-2.998 3.015.182 8 4.179 6.551l30.201-10.945 20.149 51.608c8.095 20.736.024 43.938-19.192 55.17zm164.571-253.057-41.495.422c-6.276.064-7.923 8.704-2.111 11.073l34.027 13.867-26.798 59.383-37.652 4.606c-8.012.98-8.835 12.277-1.05 14.408l26.809 7.338-19.972 44.257-32.719-.264c-4.252-.034-5.59 5.726-1.758 7.569l25.618 12.326-7.52 16.663c-6.929 15.355-21.461 25.244-37.731 26.37.507-9.08-.884-18.401-4.399-27.403l-35.685-91.4 33.919 2.92c4.236.365 6.018-5.274 2.342-7.409l-33.789-19.629 6.831-61.605 34.454 9.431c7.785 2.131 12.83-8.011 6.435-12.935l-37.315-28.726.75-6.765c2.063-18.613 12.133-35.323 27.625-45.844s34.734-13.72 52.799-8.776l22.534 6.168c18.062 4.944 32.995 17.498 40.969 34.442 5.859 12.449 7.48 26.28 4.882 39.513zm2.178-116.974c-13.686 12.627-27.441 22.694-33.398 26.894-3.035-1.228-6.154-2.29-9.351-3.165l-3.016-.826c7.93-19.552 27.832-64.485 50.418-84.034 7.361-6.372 15.081-8.11 21.736-4.897 5.519 2.666 9.212 8.325 8.979 13.763-.562 13.178-13.122 31.739-35.368 52.265z"/></g></svg>